<mxfile host="app.diagrams.net" modified="2022-07-29T11:12:50.532Z" agent="5.0 (Windows NT 10.0; Win64; x64) AppleWebKit/537.36 (KHTML, like Gecko) Chrome/95.0.4638.69 Safari/537.36" etag="cu4ilJJuxJvaIrL0twkM" version="20.1.2" type="github">
  <diagram id="oO6TMy38fASljtO1wzC2" name="第 1 页">
    <mxGraphModel dx="-645" dy="-59.8" grid="1" gridSize="10" guides="0" tooltips="1" connect="1" arrows="1" fold="1" page="1" pageScale="1" pageWidth="827" pageHeight="1169" math="0" shadow="0">
      <root>
        <mxCell id="0" />
        <mxCell id="1" parent="0" />
        <mxCell id="kz-XEersb5LrhUkUArUI-1" value="&lt;p style=&quot;line-height: 1.2;&quot;&gt;&lt;font style=&quot;font-size: 16px;&quot;&gt;ALI_YUN检测业务流程&lt;/font&gt;&lt;/p&gt;" style="swimlane;html=1;childLayout=stackLayout;startSize=50;rounded=0;shadow=0;labelBackgroundColor=none;strokeWidth=1;fontFamily=Verdana;fontSize=8;align=center;" vertex="1" parent="1">
          <mxGeometry x="880" y="80" width="830" height="740" as="geometry" />
        </mxCell>
        <mxCell id="kz-XEersb5LrhUkUArUI-2" value="&lt;font style=&quot;font-size: 14px;&quot;&gt;Director&lt;/font&gt;" style="swimlane;html=1;startSize=30;" vertex="1" parent="kz-XEersb5LrhUkUArUI-1">
          <mxGeometry y="50" width="360" height="690" as="geometry" />
        </mxCell>
        <mxCell id="kz-XEersb5LrhUkUArUI-3" value="" style="edgeStyle=orthogonalEdgeStyle;rounded=0;orthogonalLoop=1;jettySize=auto;html=1;" edge="1" parent="kz-XEersb5LrhUkUArUI-2" source="kz-XEersb5LrhUkUArUI-4" target="kz-XEersb5LrhUkUArUI-5">
          <mxGeometry relative="1" as="geometry" />
        </mxCell>
        <mxCell id="kz-XEersb5LrhUkUArUI-4" value="UI或自动任务调度" style="rounded=1;whiteSpace=wrap;html=1;shadow=0;labelBackgroundColor=none;strokeWidth=1;fontFamily=Verdana;fontSize=8;align=center;fillColor=#dae8fc;strokeColor=#6c8ebf;sketch=1;fillStyle=auto;" vertex="1" parent="kz-XEersb5LrhUkUArUI-2">
          <mxGeometry x="95" y="70" width="110" height="60" as="geometry" />
        </mxCell>
        <mxCell id="kz-XEersb5LrhUkUArUI-5" value="校验参数？" style="rhombus;whiteSpace=wrap;html=1;fontSize=8;fontFamily=Verdana;fillColor=#ffe6cc;strokeColor=#d79b00;rounded=1;shadow=0;labelBackgroundColor=none;strokeWidth=1;sketch=1;fillStyle=auto;" vertex="1" parent="kz-XEersb5LrhUkUArUI-2">
          <mxGeometry x="110" y="195" width="80" height="80" as="geometry" />
        </mxCell>
        <mxCell id="kz-XEersb5LrhUkUArUI-6" value="任务失败" style="whiteSpace=wrap;html=1;fontSize=8;fontFamily=Verdana;fillColor=#f8cecc;strokeColor=#b85450;rounded=1;shadow=0;labelBackgroundColor=none;strokeWidth=1;sketch=1;fillStyle=auto;" vertex="1" parent="kz-XEersb5LrhUkUArUI-2">
          <mxGeometry x="90" y="345" width="120" height="60" as="geometry" />
        </mxCell>
        <mxCell id="kz-XEersb5LrhUkUArUI-7" value="" style="edgeStyle=orthogonalEdgeStyle;rounded=0;orthogonalLoop=1;jettySize=auto;html=1;" edge="1" parent="kz-XEersb5LrhUkUArUI-2" source="kz-XEersb5LrhUkUArUI-5" target="kz-XEersb5LrhUkUArUI-6">
          <mxGeometry relative="1" as="geometry" />
        </mxCell>
        <mxCell id="kz-XEersb5LrhUkUArUI-8" value="&lt;font color=&quot;#000000&quot;&gt;接收显示任务状态&amp;amp;处理上报数据对象信息&lt;/font&gt;" style="whiteSpace=wrap;html=1;fontSize=8;fontFamily=Verdana;fillColor=#60a917;strokeColor=#2D7600;rounded=1;shadow=0;labelBackgroundColor=none;strokeWidth=1;sketch=1;fillStyle=auto;fontColor=#ffffff;" vertex="1" parent="kz-XEersb5LrhUkUArUI-2">
          <mxGeometry x="90" y="442" width="120" height="60" as="geometry" />
        </mxCell>
        <mxCell id="kz-XEersb5LrhUkUArUI-9" value="False" style="text;html=1;align=center;verticalAlign=middle;resizable=0;points=[];autosize=1;strokeColor=none;fillColor=none;" vertex="1" parent="kz-XEersb5LrhUkUArUI-2">
          <mxGeometry x="150" y="290" width="50" height="30" as="geometry" />
        </mxCell>
        <mxCell id="kz-XEersb5LrhUkUArUI-10" value="&lt;font style=&quot;font-size: 14px;&quot;&gt;SubEngine&lt;/font&gt;" style="swimlane;html=1;startSize=30;" vertex="1" parent="kz-XEersb5LrhUkUArUI-1">
          <mxGeometry x="360" y="50" width="470" height="690" as="geometry">
            <mxRectangle x="250" y="20" width="40" height="730" as="alternateBounds" />
          </mxGeometry>
        </mxCell>
        <mxCell id="kz-XEersb5LrhUkUArUI-11" value="" style="edgeStyle=orthogonalEdgeStyle;rounded=0;orthogonalLoop=1;jettySize=auto;html=1;entryX=0.5;entryY=0;entryDx=0;entryDy=0;" edge="1" parent="kz-XEersb5LrhUkUArUI-10" source="kz-XEersb5LrhUkUArUI-12" target="kz-XEersb5LrhUkUArUI-14">
          <mxGeometry relative="1" as="geometry">
            <mxPoint x="80" y="460" as="targetPoint" />
          </mxGeometry>
        </mxCell>
        <mxCell id="kz-XEersb5LrhUkUArUI-12" value="ECS消息处理器" style="whiteSpace=wrap;html=1;fontSize=8;fontFamily=Verdana;fillColor=#e1d5e7;strokeColor=#9673a6;rounded=1;shadow=0;labelBackgroundColor=none;strokeWidth=1;sketch=1;fillStyle=auto;perimeterSpacing=0;" vertex="1" parent="kz-XEersb5LrhUkUArUI-10">
          <mxGeometry x="90" y="205" width="120" height="60" as="geometry" />
        </mxCell>
        <mxCell id="kz-XEersb5LrhUkUArUI-13" value="" style="edgeStyle=orthogonalEdgeStyle;rounded=0;sketch=1;orthogonalLoop=1;jettySize=auto;html=1;" edge="1" parent="kz-XEersb5LrhUkUArUI-10" source="kz-XEersb5LrhUkUArUI-14" target="kz-XEersb5LrhUkUArUI-15">
          <mxGeometry relative="1" as="geometry" />
        </mxCell>
        <mxCell id="kz-XEersb5LrhUkUArUI-14" value="校验参数？" style="rhombus;whiteSpace=wrap;html=1;fontSize=8;fontFamily=Verdana;fillColor=#ffe6cc;strokeColor=#d79b00;rounded=1;shadow=0;labelBackgroundColor=none;strokeWidth=1;sketch=1;fillStyle=auto;" vertex="1" parent="kz-XEersb5LrhUkUArUI-10">
          <mxGeometry x="110" y="432" width="80" height="80" as="geometry" />
        </mxCell>
        <mxCell id="kz-XEersb5LrhUkUArUI-15" value="&lt;span style=&quot;font-family: Helvetica; font-size: 12px;&quot;&gt;推送任务状态和数据对象信息&lt;/span&gt;" style="whiteSpace=wrap;html=1;fontSize=8;fontFamily=Verdana;fillColor=#e1d5e7;strokeColor=#9673a6;rounded=1;shadow=0;labelBackgroundColor=none;strokeWidth=1;sketch=1;fillStyle=auto;" vertex="1" parent="kz-XEersb5LrhUkUArUI-10">
          <mxGeometry x="90" y="565" width="120" height="60" as="geometry" />
        </mxCell>
        <mxCell id="kz-XEersb5LrhUkUArUI-16" value="返回任务是否正常发起" style="text;html=1;align=center;verticalAlign=middle;resizable=0;points=[];autosize=1;strokeColor=none;fillColor=none;" vertex="1" parent="kz-XEersb5LrhUkUArUI-10">
          <mxGeometry x="-60" y="472" width="140" height="30" as="geometry" />
        </mxCell>
        <mxCell id="kz-XEersb5LrhUkUArUI-17" value="True，组织业务消息，分发处理" style="text;html=1;align=center;verticalAlign=middle;resizable=0;points=[];autosize=1;strokeColor=none;fillColor=none;" vertex="1" parent="kz-XEersb5LrhUkUArUI-10">
          <mxGeometry x="-161" y="205" width="190" height="30" as="geometry" />
        </mxCell>
        <mxCell id="kz-XEersb5LrhUkUArUI-29" value="RDS消息处理器" style="whiteSpace=wrap;html=1;fontSize=8;fontFamily=Verdana;fillColor=#b1ddf0;strokeColor=#10739e;rounded=1;shadow=0;labelBackgroundColor=none;strokeWidth=1;sketch=1;fillStyle=auto;perimeterSpacing=0;" vertex="1" parent="kz-XEersb5LrhUkUArUI-10">
          <mxGeometry x="270" y="205" width="120" height="60" as="geometry" />
        </mxCell>
        <mxCell id="kz-XEersb5LrhUkUArUI-36" value="" style="edgeStyle=orthogonalEdgeStyle;rounded=0;orthogonalLoop=1;jettySize=auto;html=1;" edge="1" parent="kz-XEersb5LrhUkUArUI-10" source="kz-XEersb5LrhUkUArUI-31" target="kz-XEersb5LrhUkUArUI-35">
          <mxGeometry relative="1" as="geometry" />
        </mxCell>
        <mxCell id="kz-XEersb5LrhUkUArUI-31" value="校验参数？" style="rhombus;whiteSpace=wrap;html=1;fontSize=8;fontFamily=Verdana;fillColor=#b0e3e6;strokeColor=#0e8088;rounded=1;shadow=0;labelBackgroundColor=none;strokeWidth=1;sketch=1;fillStyle=auto;" vertex="1" parent="kz-XEersb5LrhUkUArUI-10">
          <mxGeometry x="289" y="430" width="80" height="80" as="geometry" />
        </mxCell>
        <mxCell id="kz-XEersb5LrhUkUArUI-35" value="&lt;span style=&quot;font-family: Helvetica; font-size: 12px;&quot;&gt;推送任务状态和数据对象信息&lt;/span&gt;" style="whiteSpace=wrap;html=1;fontSize=8;fontFamily=Verdana;fillColor=#b0e3e6;strokeColor=#0e8088;rounded=1;shadow=0;labelBackgroundColor=none;strokeWidth=1;sketch=1;fillStyle=auto;" vertex="1" parent="kz-XEersb5LrhUkUArUI-10">
          <mxGeometry x="269" y="560" width="120" height="60" as="geometry" />
        </mxCell>
        <mxCell id="kz-XEersb5LrhUkUArUI-37" value="" style="endArrow=classic;html=1;rounded=0;exitX=0.5;exitY=1;exitDx=0;exitDy=0;" edge="1" parent="kz-XEersb5LrhUkUArUI-10">
          <mxGeometry width="50" height="50" relative="1" as="geometry">
            <mxPoint x="326" y="620" as="sourcePoint" />
            <mxPoint x="-210" y="590" as="targetPoint" />
            <Array as="points">
              <mxPoint x="326" y="640" />
              <mxPoint x="-210" y="640" />
            </Array>
          </mxGeometry>
        </mxCell>
        <mxCell id="kz-XEersb5LrhUkUArUI-18" value="" style="edgeStyle=orthogonalEdgeStyle;rounded=0;orthogonalLoop=1;jettySize=auto;html=1;" edge="1" parent="kz-XEersb5LrhUkUArUI-1" source="kz-XEersb5LrhUkUArUI-5" target="kz-XEersb5LrhUkUArUI-12">
          <mxGeometry relative="1" as="geometry" />
        </mxCell>
        <mxCell id="kz-XEersb5LrhUkUArUI-19" value="" style="edgeStyle=orthogonalEdgeStyle;rounded=0;orthogonalLoop=1;jettySize=auto;html=1;" edge="1" parent="kz-XEersb5LrhUkUArUI-1" source="kz-XEersb5LrhUkUArUI-14" target="kz-XEersb5LrhUkUArUI-8">
          <mxGeometry relative="1" as="geometry" />
        </mxCell>
        <mxCell id="kz-XEersb5LrhUkUArUI-20" value="" style="edgeStyle=orthogonalEdgeStyle;rounded=0;orthogonalLoop=1;jettySize=auto;html=1;entryX=0.5;entryY=1;entryDx=0;entryDy=0;" edge="1" parent="kz-XEersb5LrhUkUArUI-1" source="kz-XEersb5LrhUkUArUI-15" target="kz-XEersb5LrhUkUArUI-8">
          <mxGeometry relative="1" as="geometry">
            <mxPoint x="80" y="630" as="targetPoint" />
          </mxGeometry>
        </mxCell>
        <mxCell id="kz-XEersb5LrhUkUArUI-33" value="" style="edgeStyle=orthogonalEdgeStyle;rounded=0;orthogonalLoop=1;jettySize=auto;html=1;entryX=0.5;entryY=0;entryDx=0;entryDy=0;" edge="1" parent="1" target="kz-XEersb5LrhUkUArUI-31">
          <mxGeometry relative="1" as="geometry">
            <mxPoint x="1569" y="395" as="sourcePoint" />
            <mxPoint x="1569" y="550" as="targetPoint" />
          </mxGeometry>
        </mxCell>
        <mxCell id="kz-XEersb5LrhUkUArUI-34" value="" style="endArrow=classic;html=1;rounded=0;entryX=0.5;entryY=0;entryDx=0;entryDy=0;" edge="1" parent="1" target="kz-XEersb5LrhUkUArUI-29">
          <mxGeometry width="50" height="50" relative="1" as="geometry">
            <mxPoint x="1280" y="365" as="sourcePoint" />
            <mxPoint x="1620" y="295" as="targetPoint" />
            <Array as="points">
              <mxPoint x="1280" y="295" />
              <mxPoint x="1570" y="295" />
            </Array>
          </mxGeometry>
        </mxCell>
      </root>
    </mxGraphModel>
  </diagram>
</mxfile>
